<svg width="338" height="109" viewBox="0 0 338 109" fill="none" xmlns="http://www.w3.org/2000/svg">
<path d="M6.16 78V32H18.8V68.16H41.28V78H6.16ZM64.4556 78.88C59.4956 78.88 55.069 77.8667 51.1756 75.84C47.2823 73.76 44.2156 70.9067 41.9756 67.28C39.7356 63.6533 38.6156 59.5467 38.6156 54.96C38.6156 50.3733 39.7356 46.2933 41.9756 42.72C44.2156 39.1467 47.2823 36.32 51.1756 34.24C55.069 32.16 59.4956 31.12 64.4556 31.12C69.4156 31.12 73.8423 32.16 77.7356 34.24C81.629 36.32 84.6956 39.1467 86.9356 42.72C89.1756 46.2933 90.2956 50.3733 90.2956 54.96C90.2956 59.5467 89.1756 63.6533 86.9356 67.28C84.6956 70.9067 81.629 73.76 77.7356 75.84C73.8423 77.8667 69.4156 78.88 64.4556 78.88ZM64.4556 68.56C67.0156 68.56 69.2556 68 71.1756 66.88C73.149 65.7067 74.6956 64.08 75.8156 62C76.9356 59.92 77.4956 57.6 77.4956 55.04C77.4956 52.3733 76.9356 50.0267 75.8156 48C74.6956 45.9733 73.149 44.3733 71.1756 43.2C69.2556 42.0267 67.0156 41.44 64.4556 41.44C61.949 41.44 59.709 42.0267 57.7356 43.2C55.7623 44.3733 54.189 45.9733 53.0156 48C51.8956 50.0267 51.3356 52.3467 51.3356 54.96C51.3356 57.5733 51.8956 59.92 53.0156 62C54.189 64.08 55.7623 65.7067 57.7356 66.88C59.709 68 61.949 68.56 64.4556 68.56ZM105.321 67.68L104.601 53.6L125.241 32H139.161L119.161 53.44L112.121 60.56L105.321 67.68ZM94.0412 78V32H106.521V78H94.0412ZM125.481 78L109.881 58.8L118.121 50L140.201 78H125.481ZM131.18 78L151.82 32H164.3L185.02 78H172.54L155.98 38.08H160.22L143.42 78H131.18ZM142.46 68.88L145.74 59.76H168.46L171.74 68.88H142.46ZM251.827 78V70.08L279.667 37.52L281.107 41.84H252.387V32H292.387V39.92L264.467 72.48L263.027 68.16H293.347V78H251.827ZM307.279 50.08H329.519V59.28H307.279V50.08ZM308.559 68.32H333.119V78H296.079V32H332.239V41.68H308.559V68.32Z" fill="#2D2D2D"/>
<path d="M189 31.904L236.488 31.904V44.064L189 44.064V31.904ZM189 51.9665L223.688 51.9665V64.1265L189 64.1265V51.9665ZM227.528 58.0465C227.528 55.8278 228.147 54.0358 229.384 52.6705C230.621 51.3052 232.157 50.6225 233.992 50.6225C235.827 50.6225 237.363 51.3052 238.6 52.6705C239.837 54.0358 240.456 55.8278 240.456 58.0465C240.456 60.2652 239.859 62.0572 238.664 63.4225C237.512 64.7878 236.019 65.4705 234.184 65.4705C232.264 65.4705 230.664 64.7878 229.384 63.4225C228.147 62.0998 227.528 60.3078 227.528 58.0465Z" fill="#2D2D2D"/>
<circle cx="235" cy="58" r="8" fill="#FF6E7F"/>
</svg>
